{
  "accessors": [
    {
      "bufferView": 2,
      "componentType": 5126,
      "count": 223,
      "max": [
        0.15448400378227234,
        0.10784000158309937,
        1.217074990272522
      ],
      "min": [
        -0.09961500018835068,
        -0.1072240024805069,
        0.9598870277404785
      ],
      "type": "VEC3"
    },
    {
      "bufferView": 2,
      "byteOffset": 2676,
      "componentType": 5126,
      "count": 223,
      "max": [
        0.9986246228218079,
        0.9978134632110596,
        0.998609185218811
      ],
      "min": [
        -0.8281596302986145,
        -0.999767005443573,
        -0.4784916043281555
      ],
      "type": "VEC3"
    },
    {
      "bufferView": 1,
      "componentType": 5126,
      "count": 223,
      "max": [
        0.9951609969139099,
        1.0109210014343262
      ],
      "min": [
        0.00483600003644824,
        0.006049000192433596
      ],
      "type": "VEC2"
    },
    {
      "bufferView": 0,
      "componentType": 5125,
      "count": 1158,
      "type": "SCALAR"
    },
    {
      "bufferView": 2,
      "byteOffset": 5352,
      "componentType": 5126,
      "count": 4779,
      "max": [
        0.20902599394321442,
        0.28867098689079285,
        0.8890399932861328
      ],
      "min": [
        -0.2334820032119751,
        -0.28852298855781555,
        -0.4507080018520355
      ],
      "type": "VEC3"
    },
    {
      "bufferView": 2,
      "byteOffset": 62700,
      "componentType": 5126,
      "count": 4779,
      "max": [
        0.9999765157699585,
        1.0,
        0.9988375902175903
      ],
      "min": [
        -1.0,
        -0.99961918592453,
        -0.9999662637710571
      ],
      "type": "VEC3"
    },
    {
      "bufferView": 1,
      "byteOffset": 1784,
      "componentType": 5126,
      "count": 4779,
      "max": [
        0.9950559735298157,
        0.9930980205535889
      ],
      "min": [
        0.014511999674141407,
        0.005100000184029341
      ],
      "type": "VEC2"
    },
    {
      "bufferView": 0,
      "byteOffset": 4632,
      "componentType": 5125,
      "count": 23820,
      "type": "SCALAR"
    },
    {
      "bufferView": 2,
      "byteOffset": 120048,
      "componentType": 5126,
      "count": 27987,
      "max": [
        0.2334820032119751,
        0.19456200301647186,
        1.25
      ],
      "min": [
        -0.13843800127506256,
        -0.2006399929523468,
        0.7142090201377869
      ],
      "type": "VEC3"
    },
    {
      "bufferView": 2,
      "byteOffset": 455892,
      "componentType": 5126,
      "count": 27987,
      "max": [
        0.9999314546585083,
        0.9999191164970398,
        0.9999463558197021
      ],
      "min": [
        -0.9999579787254333,
        -0.9999881386756897,
        -0.9998743534088135
      ],
      "type": "VEC3"
    },
    {
      "bufferView": 1,
      "byteOffset": 40016,
      "componentType": 5126,
      "count": 27987,
      "max": [
        0.3446199893951416,
        0.9999920129776001
      ],
      "min": [
        0.096220001578331,
        0.031209999695420265
      ],
      "type": "VEC2"
    },
    {
      "bufferView": 0,
      "byteOffset": 99912,
      "componentType": 5125,
      "count": 77952,
      "type": "SCALAR"
    },
    {
      "bufferView": 2,
      "byteOffset": 791736,
      "componentType": 5126,
      "count": 5710,
      "max": [
        0.18286900222301483,
        0.3797549903392792,
        -0.9909960031509399
      ],
      "min": [
        -0.10297799855470657,
        -0.3797760009765625,
        -1.25
      ],
      "type": "VEC3"
    },
    {
      "bufferView": 2,
      "byteOffset": 860256,
      "componentType": 5126,
      "count": 5710,
      "max": [
        0.9993731379508972,
        0.9992609620094299,
        0.9998555779457092
      ],
      "min": [
        -0.9998936653137207,
        -0.9992630481719971,
        -0.9988709688186646
      ],
      "type": "VEC3"
    },
    {
      "bufferView": 1,
      "byteOffset": 263912,
      "componentType": 5126,
      "count": 5710,
      "max": [
        0.9951599836349487,
        0.9944319725036621
      ],
      "min": [
        0.00483600003644824,
        0.005566000007092953
      ],
      "type": "VEC2"
    },
    {
      "bufferView": 0,
      "byteOffset": 411720,
      "componentType": 5125,
      "count": 26424,
      "type": "SCALAR"
    },
    {
      "bufferView": 2,
      "byteOffset": 928776,
      "componentType": 5126,
      "count": 10149,
      "max": [
        0.16715699434280396,
        0.827364981174469,
        1.2145379781723022
      ],
      "min": [
        -0.22450900077819824,
        -0.827364981174469,
        -1.2290699481964111
      ],
      "type": "VEC3"
    },
    {
      "bufferView": 2,
      "byteOffset": 1050564,
      "componentType": 5126,
      "count": 10149,
      "max": [
        0.9998070597648621,
        0.9998365044593811,
        0.9998733401298523
      ],
      "min": [
        -0.9999865889549255,
        -0.9998325705528259,
        -0.9995741248130798
      ],
      "type": "VEC3"
    },
    {
      "bufferView": 1,
      "byteOffset": 309592,
      "componentType": 5126,
      "count": 10149,
      "max": [
        0.9723989963531494,
        0.9984999895095825
      ],
      "min": [
        0.02759999968111515,
        0.001500000013038516
      ],
      "type": "VEC2"
    },
    {
      "bufferView": 0,
      "byteOffset": 517416,
      "componentType": 5125,
      "count": 46776,
      "type": "SCALAR"
    },
    {
      "bufferView": 2,
      "byteOffset": 1172352,
      "componentType": 5126,
      "count": 522,
      "max": [
        -0.06519600003957748,
        0.06356599926948547,
        1.089540958404541
      ],
      "min": [
        -0.09807699918746948,
        -0.06359200179576874,
        1.0443780422210693
      ],
      "type": "VEC3"
    },
    {
      "bufferView": 2,
      "byteOffset": 1178616,
      "componentType": 5126,
      "count": 522,
      "max": [
        0.3884746730327606,
        1.0,
        0.999921977519989
      ],
      "min": [
        -0.9999995231628418,
        -0.9999999403953552,
        -0.9999954104423523
      ],
      "type": "VEC3"
    },
    {
      "bufferView": 1,
      "byteOffset": 390784,
      "componentType": 5126,
      "count": 522,
      "max": [
        1.6654030084609985,
        1.665395975112915
      ],
      "min": [
        -0.6654019951820374,
        -0.6653990149497986
      ],
      "type": "VEC2"
    },
    {
      "bufferView": 0,
      "byteOffset": 704520,
      "componentType": 5125,
      "count": 3000,
      "type": "SCALAR"
    },
    {
      "bufferView": 2,
      "byteOffset": 1184880,
      "componentType": 5126,
      "count": 1237,
      "max": [
        -0.08625900000333786,
        0.07418199628591537,
        1.0805350542068481
      ],
      "min": [
        -0.10804899781942368,
        -0.07420399785041809,
        1.0534590482711792
      ],
      "type": "VEC3"
    },
    {
      "bufferView": 2,
      "byteOffset": 1199724,
      "componentType": 5126,
      "count": 1237,
      "max": [
        0.059384800493717194,
        0.7217661142349243,
        0.9609361886978149
      ],
      "min": [
        -0.9511345624923706,
        -0.7177507281303406,
        -0.9991104602813721
      ],
      "type": "VEC3"
    },
    {
      "bufferView": 1,
      "byteOffset": 394960,
      "componentType": 5126,
      "count": 1237,
      "max": [
        1.0,
        1.0
      ],
      "min": [
        0.0,
        0.0
      ],
      "type": "VEC2"
    },
    {
      "bufferView": 0,
      "byteOffset": 716520,
      "componentType": 5125,
      "count": 2376,
      "type": "SCALAR"
    }
  ],
  "asset": {
    "extras": {
      "author": "Gin Kern Creative Cloud (https://sketchfab.com/GinKern)",
      "license": "SKETCHFAB Standard (https://sketchfab.com/licenses)",
      "source": "https://sketchfab.com/3d-models/woman-model-f7ba462196e94f2c9b68a4eea7f0a661",
      "title": "Woman Model"
    },
    "generator": "Sketchfab-16.56.0",
    "version": "2.0"
  },
  "bufferViews": [
    {
      "buffer": 0,
      "byteLength": 726024,
      "name": "floatBufferViews",
      "target": 34963
    },
    {
      "buffer": 0,
      "byteLength": 404856,
      "byteOffset": 726024,
      "byteStride": 8,
      "name": "floatBufferViews",
      "target": 34962
    },
    {
      "buffer": 0,
      "byteLength": 1214568,
      "byteOffset": 1130880,
      "byteStride": 12,
      "name": "floatBufferViews",
      "target": 34962
    }
  ],
  "buffers": [
    {
      "byteLength": 2345448,
      "uri": "scene.bin"
    }
  ],
  "extensionsUsed": [
    "KHR_materials_clearcoat"
  ],
  "images": [
    {
      "uri": "textures/CapM_baseColor.jpeg"
    },
    {
      "uri": "textures/ClothM_baseColor.jpeg"
    },
    {
      "uri": "textures/HairM_baseColor.jpeg"
    },
    {
      "uri": "textures/ShoeM_baseColor.jpeg"
    },
    {
      "uri": "textures/bodyM_baseColor.jpeg"
    },
    {
      "uri": "textures/eyeM_baseColor.jpeg"
    },
    {
      "uri": "textures/eyelashesM_baseColor.jpeg"
    }
  ],
  "materials": [
    {
      "doubleSided": true,
      "name": "CapM",
      "pbrMetallicRoughness": {
        "baseColorTexture": {
          "index": 0
        },
        "metallicFactor": 0.0,
        "roughnessFactor": 0.9826794919243113
      }
    },
    {
      "doubleSided": true,
      "name": "ClothM",
      "pbrMetallicRoughness": {
        "baseColorTexture": {
          "index": 1
        },
        "metallicFactor": 0.0,
        "roughnessFactor": 0.9826794919243113
      }
    },
    {
      "doubleSided": true,
      "extensions": {
        "KHR_materials_clearcoat": {
          "clearcoatFactor": 1.0,
          "clearcoatRoughnessFactor": 0.04
        }
      },
      "name": "HairM",
      "pbrMetallicRoughness": {
        "baseColorTexture": {
          "index": 2
        },
        "metallicFactor": 0.0,
        "roughnessFactor": 0.9826794919243113
      }
    },
    {
      "doubleSided": true,
      "extensions": {
        "KHR_materials_clearcoat": {
          "clearcoatFactor": 1.0,
          "clearcoatRoughnessFactor": 0.04
        }
      },
      "name": "ShoeM",
      "pbrMetallicRoughness": {
        "baseColorTexture": {
          "index": 3
        },
        "metallicFactor": 0.0,
        "roughnessFactor": 0.9826794919243113
      }
    },
    {
      "doubleSided": true,
      "name": "bodyM",
      "pbrMetallicRoughness": {
        "baseColorTexture": {
          "index": 4
        },
        "metallicFactor": 0.0,
        "roughnessFactor": 0.9826794919243113
      }
    },
    {
      "doubleSided": true,
      "name": "eyeM",
      "pbrMetallicRoughness": {
        "baseColorTexture": {
          "index": 5
        },
        "metallicFactor": 0.0,
        "roughnessFactor": 0.9826794919243113
      }
    },
    {
      "alphaMode": "BLEND",
      "doubleSided": true,
      "name": "eyelashesM",
      "pbrMetallicRoughness": {
        "baseColorFactor": [
          1.0,
          1.0,
          1.0,
          0.6
        ],
        "baseColorTexture": {
          "index": 6
        },
        "metallicFactor": 0.0,
        "roughnessFactor": 0.9826794919243113
      }
    }
  ],
  "meshes": [
    {
      "name": "Object_0",
      "primitives": [
        {
          "attributes": {
            "NORMAL": 1,
            "POSITION": 0,
            "TEXCOORD_0": 2
          },
          "indices": 3,
          "material": 0,
          "mode": 4
        }
      ]
    },
    {
      "name": "Object_1",
      "primitives": [
        {
          "attributes": {
            "NORMAL": 5,
            "POSITION": 4,
            "TEXCOORD_0": 6
          },
          "indices": 7,
          "material": 1,
          "mode": 4
        }
      ]
    },
    {
      "name": "Object_2",
      "primitives": [
        {
          "attributes": {
            "NORMAL": 9,
            "POSITION": 8,
            "TEXCOORD_0": 10
          },
          "indices": 11,
          "material": 2,
          "mode": 4
        }
      ]
    },
    {
      "name": "Object_3",
      "primitives": [
        {
          "attributes": {
            "NORMAL": 13,
            "POSITION": 12,
            "TEXCOORD_0": 14
          },
          "indices": 15,
          "material": 3,
          "mode": 4
        }
      ]
    },
    {
      "name": "Object_4",
      "primitives": [
        {
          "attributes": {
            "NORMAL": 17,
            "POSITION": 16,
            "TEXCOORD_0": 18
          },
          "indices": 19,
          "material": 4,
          "mode": 4
        }
      ]
    },
    {
      "name": "Object_5",
      "primitives": [
        {
          "attributes": {
            "NORMAL": 21,
            "POSITION": 20,
            "TEXCOORD_0": 22
          },
          "indices": 23,
          "material": 5,
          "mode": 4
        }
      ]
    },
    {
      "name": "Object_6",
      "primitives": [
        {
          "attributes": {
            "NORMAL": 25,
            "POSITION": 24,
            "TEXCOORD_0": 26
          },
          "indices": 27,
          "material": 6,
          "mode": 4
        }
      ]
    }
  ],
  "nodes": [
    {
      "children": [
        1
      ],
      "matrix": [
        1.0,
        0.0,
        0.0,
        0.0,
        0.0,
        2.220446049250313e-16,
        -1.0,
        0.0,
        0.0,
        1.0,
        2.220446049250313e-16,
        0.0,
        0.0,
        0.0,
        0.0,
        1.0
      ],
      "name": "Sketchfab_model"
    },
    {
      "children": [
        2,
        3,
        4,
        5,
        6,
        7,
        8
      ],
      "name": "R7M7JFH855IQQT68EA3AGVD86.obj.cleaner.materialmerger.gles"
    },
    {
      "mesh": 0,
      "name": "Object_2"
    },
    {
      "mesh": 1,
      "name": "Object_3"
    },
    {
      "mesh": 2,
      "name": "Object_4"
    },
    {
      "mesh": 3,
      "name": "Object_5"
    },
    {
      "mesh": 4,
      "name": "Object_6"
    },
    {
      "mesh": 5,
      "name": "Object_7"
    },
    {
      "mesh": 6,
      "name": "Object_8"
    }
  ],
  "samplers": [
    {
      "magFilter": 9729,
      "minFilter": 9987,
      "wrapS": 10497,
      "wrapT": 10497
    }
  ],
  "scene": 0,
  "scenes": [
    {
      "name": "Sketchfab_Scene",
      "nodes": [
        0
      ]
    }
  ],
  "textures": [
    {
      "sampler": 0,
      "source": 0
    },
    {
      "sampler": 0,
      "source": 1
    },
    {
      "sampler": 0,
      "source": 2
    },
    {
      "sampler": 0,
      "source": 3
    },
    {
      "sampler": 0,
      "source": 4
    },
    {
      "sampler": 0,
      "source": 5
    },
    {
      "sampler": 0,
      "source": 6
    }
  ]
}
